#!OML:ASF \\Waltz\H\Terrain\Patient Classification 1\Animal2\Wednesday\Animal2.ASF
:FULLY-SPECIFIED
:DEGREES
698
root 14.5592 16.1879 -4.15812 3.06077 -34.0378 -10.7248
lowerback 21.0877 -2.60316 0.611578
upperback -2.62495 -3.10088 1.53089
thorax -14.866 -1.36695 2.43535
lowerneck 6.16351 9.12505 15.7324
upperneck -26.4651 9.54057 -23.6821
head -6.64321 5.31889 -11.4747
rclavicle 2.97929e-014 -3.97569e-015
rhumerus -31.6318 -27.5198 -20.9319
rradius 139.605
rwrist 2.48333
rhand -19.8534 11.5029
rfingers 7.12502
rthumb 6.4813 -18.378
lclavicle 2.97929e-014 -3.97569e-015
lhumerus -30.2782 23.1766 9.92647
lradius 134.713
lwrist 22.2932
lhand -39.4501 10.0712
lfingers 7.12502
lthumb -12.4377 39.6812
rfemur -41.5185 -50.3696 -4.01993
rtibia 85.1211
rfoot 21.4274 -7.46179
rtoes 52.7953
lfemur -21.6949 38.7766 5.61832
ltibia 62.4338
lfoot -23.0003 -1.2476
ltoes -40.3741
699
root 14.5568 16.2051 -4.18302 3.0115 -34.2584 -10.9402
lowerback 21.155 -2.60158 1.07772
upperback -2.47971 -2.98697 1.45249
thorax -14.7666 -1.36092 2.04017
lowerneck 6.22323 9.16425 15.8669
upperneck -26.5502 9.58584 -23.8411
head -6.64767 5.34678 -11.5685
rclavicle -1.09555e-013 5.56597e-015
rhumerus -30.1077 -28.1394 -19.0119
rradius 138.194
rwrist 2.30861
rhand -20.021 10.7448
rfingers 7.12502
rthumb 6.3195 -19.1409
lclavicle -1.09555e-013 5.56597e-015
lhumerus -28.8029 24.028 7.67813
lradius 132.927
lwrist 24.4704
lhand -38.5697 11.6316
lfingers 7.12502
lthumb -11.5887 41.2912
rfemur -41.8541 -50.1543 -3.85009
rtibia 85.504
rfoot 21.43 -7.24643
rtoes 51.8212
lfemur -21.2276 38.551 5.89018
ltibia 61.9864
lfoot -22.9446 -0.123756
ltoes -41.6499
700
root 14.5526 16.2295 -4.20636 2.94479 -34.3835 -10.8063
lowerback 21.1134 -2.60632 1.34676
upperback -2.51936 -2.93517 1.36402
thorax -14.8102 -1.3643 1.76886
lowerneck 6.25911 9.2272 15.7674
upperneck -26.3115 9.69474 -23.8547
head -6.56011 5.41613 -11.5293
rclavicle 6.58474e-015 -2.14687e-014
rhumerus -28.4291 -28.76 -16.9512
rradius 136.44
rwrist 2.3271
rhand -20.114 10.2509
rfingers 7.12502
rthumb 6.22971 -19.6375
lclavicle 6.58474e-015 -2.14687e-014
lhumerus -27.4522 24.8241 5.60464
lradius 131.069
lwrist 26.6414
lhand -37.3507 13.3213
lfingers 7.12502
lthumb -10.413 43.0434
rfemur -42.2567 -49.9949 -3.83187
rtibia 85.7162
rfoot 21.1281 -8.21894
rtoes 52.0688
lfemur -20.9626 38.054 5.61637
ltibia 61.3225
lfoot -22.8722 0.289784
ltoes -39.8799
701
root 14.5422 16.2721 -4.22711 2.84292 -34.5691 -10.6114
lowerback 20.9478 -2.54298 1.57728
upperback -2.54543 -2.80447 1.2885
thorax -14.7611 -1.32983 1.50082
lowerneck 6.32815 9.23156 15.4524
upperneck -26.1594 9.71028 -23.7046
head -6.55676 5.44344 -11.4091
rclavicle -1.33378e-013 1.03368e-014
rhumerus -26.674 -29.544 -14.7959
rradius 134.323
rwrist 2.44551
rhand -20.3388 10.1447
rfingers 7.12502
rthumb 6.01275 -19.75
lclavicle -1.33378e-013 1.03368e-014
lhumerus -26.069 25.538 3.93904
lradius 128.916
lwrist 27.7847
lhand -36.1398 15.1152
lfingers 7.12502
lthumb -9.24468 44.8925
rfemur -42.5191 -49.8158 -3.81697
rtibia 85.7559
rfoot 20.4176 -9.9612
rtoes 53.0716
lfemur -20.5166 37.5116 5.31336
ltibia 60.4363
lfoot -22.8297 0.447416
ltoes -37.5959
702
root 14.5219 16.3258 -4.24952 2.55642 -34.8001 -10.1733
lowerback 20.7818 -2.46585 1.56791
upperback -2.56175 -2.72507 1.16545
thorax -14.6884 -1.30123 1.33202
lowerneck 6.56756 9.23038 15.2282
upperneck -26.188 9.68793 -23.766
head -6.62516 5.46914 -11.4167
rclavicle -5.65294e-015 2.38542e-015
rhumerus -24.7696 -30.345 -12.9606
rradius 132.104
rwrist 2.45111
rhand -20.358 10.1227
rfingers 7.12502
rthumb 5.99422 -19.7725
lclavicle -5.65294e-015 2.38542e-015
lhumerus -24.7968 26.5086 2.19486
lradius 126.551
lwrist 28.8708
lhand -35.0947 16.5225
lfingers 7.12502
lthumb -8.2362 46.342
rfemur -42.6242 -49.5871 -3.99378
rtibia 85.6263
rfoot 19.8824 -11.2964
rtoes 53.769
lfemur -19.8656 36.9298 4.81332
ltibia 59.3647
lfoot -22.6372 1.50484
ltoes -38.6528
703
root 14.4954 16.3885 -4.27715 2.44168 -34.9057 -9.97248
lowerback 20.7214 -2.48408 1.70186
upperback -2.71526 -2.71442 1.16446
thorax -14.8426 -1.30648 1.25477
lowerneck 6.87821 9.29159 15.018
upperneck -26.0813 9.76879 -23.8941
head -6.63492 5.55457 -11.4389
rclavicle 2.22949e-013 1.19271e-014
rhumerus -22.6507 -30.9911 -11.4955
rradius 129.762
rwrist 2.51103
rhand -20.4996 10.108
rfingers 7.12502
rthumb 5.85752 -19.7911
lclavicle 2.22949e-013 1.19271e-014
lhumerus -24.0072 27.3945 0.034362
lradius 124.148
lwrist 30.3242
lhand -34.505 16.9667
lfingers 7.12502
lthumb -7.66702 46.8078
rfemur -42.57 -49.2945 -3.82154
rtibia 85.2639
rfoot 19.4557 -12.2574
rtoes 54.1953
lfemur -19.316 36.2558 4.5003
ltibia 58.1877
lfoot -21.9432 2.94607
ltoes -41.7315
704
root 14.4642 16.4616 -4.30783 2.55572 -35.0278 -10.0225
lowerback 20.4896 -2.49037 2.11819
upperback -2.82458 -2.62211 1.15257
thorax -14.8571 -1.30158 0.967952
lowerneck 6.97507 9.31346 14.979
upperneck -25.8666 9.81723 -23.9829
head -6.56967 5.59673 -11.4487
rclavicle -1.00834e-013 -1.59028e-014
rhumerus -20.6247 -31.7455 -10.2944
rradius 127.223
rwrist 2.82543
rhand -21.1062 9.8301
rfingers 7.12502
rthumb 5.27183 -20.0843
lclavicle -1.00834e-013 -1.59028e-014
lhumerus -22.9591 28.1411 -1.81452
lradius 121.427
lwrist 30.8172
lhand -34.2347 17.187
lfingers 7.12502
lthumb -7.40612 47.0374
rfemur -42.4874 -48.9525 -3.17591
rtibia 84.6796
rfoot 19.1564 -12.6991
rtoes 54.158
lfemur -18.869 35.6678 4.44243
ltibia 56.9612
lfoot -20.7786 4.29701
ltoes -45.0456
705
root 14.4278 16.5398 -4.33992 2.40388 -35.1718 -9.53181
lowerback 20.1128 -2.4185 2.17754
upperback -2.87911 -2.54769 0.967975
thorax -14.7088 -1.2856 0.684786
lowerneck 6.89198 9.29297 14.9607
upperneck -25.6384 9.80149 -23.9989
head -6.48576 5.59054 -11.4218
rclavicle 7.24322e-015 1.27222e-014
rhumerus -18.7488 -32.6539 -9.21528
rradius 124.615
rwrist 3.00921
rhand -21.2595 9.7469
rfingers 7.12502
rthumb 5.12382 -20.1712
lclavicle 7.24322e-015 1.27222e-014
lhumerus -21.2747 29.034 -2.78243
lradius 118.241
lwrist 30.475
lhand -34.1994 17.5362
lfingers 7.12502
lthumb -7.37205 47.3878
rfemur -42.3179 -48.719 -3.03813
rtibia 83.9585
rfoot 18.8408 -13.2658
rtoes 54.1416
lfemur -18.4183 35.0732 3.89006
ltibia 55.6746
lfoot -19.5476 5.19586
ltoes -46.893
706
root 14.3862 16.6278 -4.37342 2.31155 -35.2155 -9.15845
lowerback 19.8828 -2.40678 2.29073
upperback -3.08442 -2.52062 0.877043
thorax -14.8257 -1.28917 0.506007
lowerneck 7.16333 9.25798 14.9185
upperneck -25.4996 9.77858 -24.0988
head -6.49263 5.60569 -11.4611
rclavicle -2.84759e-014 -4.05521e-014
rhumerus -16.7794 -33.3675 -8.22944
rradius 122.01
rwrist 2.90828
rhand -20.6867 10.1041
rfingers 7.12502
rthumb 5.67684 -19.7999
lclavicle -2.84759e-014 -4.05521e-014
lhumerus -19.6758 29.7374 -3.56372
lradius 114.981
lwrist 30.339
lhand -34.6396 17.5986
lfingers 7.12502
lthumb -7.79695 47.4348
rfemur -41.9318 -48.5591 -2.88507
rtibia 83.1319
rfoot 18.2227 -14.4355
rtoes 54.6791
lfemur -17.9233 34.4347 3.50879
ltibia 54.3054
lfoot -18.5656 5.07431
ltoes -46.6049
707
root 14.3386 16.7282 -4.4095 2.33997 -35.2893 -9.05582
lowerback 19.7797 -2.44422 2.57024
upperback -3.39385 -2.50048 0.870112
thorax -15.1483 -1.30576 0.340086
lowerneck 7.67201 9.24125 15.1529
upperneck -25.2701 9.83284 -24.4155
head -6.46084 5.66679 -11.636
rclavicle 4.96962e-016 -1.59028e-015
rhumerus -14.6332 -33.8052 -7.61928
rradius 119.497
rwrist 2.9266
rhand -20.095 10.0915
rfingers 7.12502
rthumb 6.2481 -19.7963
lclavicle 4.96962e-016 -1.59028e-015
lhumerus -18.8802 30.1796 -5.28603
lradius 112.018
lwrist 30.6925
lhand -35.0467 18.2502
lfingers 7.12502
lthumb -8.18985 48.0715
rfemur -41.361 -48.1393 -2.4149
rtibia 82.1227
rfoot 17.2596 -15.8452
rtoes 55.678
lfemur -17.303 33.8397 3.49771
ltibia 52.8349
lfoot -17.5468 4.45765
ltoes -45.5039
708
root 14.283 16.8388 -4.44865 2.12184 -35.5025 -8.62425
lowerback 19.6824 -2.39938 2.50939
upperback -3.63368 -2.46666 0.796731
thorax -15.3774 -1.29076 0.284316
lowerneck 7.97308 9.31281 15.2805
upperneck -25.0457 10.0059 -24.5439
head -6.38893 5.76837 -11.7009
rclavicle -1.07095e-014 2.38542e-014
rhumerus -12.4304 -34.2628 -7.19999
rradius 116.994
rwrist 2.81756
rhand -19.7014 9.64821
rfingers 7.12502
rthumb 6.62811 -20.2281
lclavicle -1.07095e-014 2.38542e-014
lhumerus -18.5407 30.6717 -7.32268
lradius 109.146
lwrist 31.2975
lhand -34.9266 19.6372
lfingers 7.12502
lthumb -8.07396 49.463
rfemur -40.6592 -47.3311 -2.21482
rtibia 80.9261
rfoot 16.4118 -16.8197
rtoes 55.835
lfemur -16.45 33.3264 3.31257
ltibia 51.2684
lfoot -16.2398 3.97182
ltoes -45.5081
709
root 14.2194 16.9549 -4.48929 1.85304 -35.714 -7.94703
lowerback 19.4 -2.26894 2.22192
upperback -3.78859 -2.38964 0.673753
thorax -15.3822 -1.23941 0.275513
lowerneck 7.90732 9.40692 15.1395
upperneck -24.82 10.1614 -24.4235
head -6.29265 5.84364 -11.5965
rclavicle 5.63555e-014 -3.97569e-015
rhumerus -10.5399 -34.9458 -6.66246
rradius 114.529
rwrist 2.41483
rhand -19.507 9.30834
rfingers 7.12502
rthumb 6.81577 -20.562
lclavicle 5.63555e-014 -3.97569e-015
lhumerus -17.8272 31.3163 -8.59917
lradius 106.134
lwrist 32.0707
lhand -34.2612 21.0016
lfingers 7.12502
lthumb -7.43172 50.8511
rfemur -39.9887 -46.5468 -2.23321
rtibia 79.6556
rfoot 16.0449 -17.1086
rtoes 55.1541
lfemur -15.6353 32.9403 2.9109
ltibia 49.6621
lfoot -14.7716 3.35666
ltoes -45.7739
710
root 14.1528 17.069 -4.53421 1.61423 -35.8313 -7.10105
lowerback 18.9865 -2.13668 1.83694
upperback -3.97123 -2.33941 0.529375
thorax -15.3374 -1.19309 0.302696
lowerneck 7.69817 9.42278 15.0804
upperneck -24.3407 10.2024 -24.4691
head -6.09643 5.86532 -11.5353
rclavicle -9.0447e-015 3.97569e-015
rhumerus -8.84059 -35.6521 -6.27236
rradius 112.232
rwrist 2.11065
rhand -19.2959 8.99128
rfingers 7.12502
rthumb 7.01955 -20.8723
lclavicle -9.0447e-015 3.97569e-015
lhumerus -16.7816 31.9306 -9.36298
lradius 103.117
lwrist 33.0201
lhand -33.7525 21.8082
lfingers 7.12502
lthumb -6.94067 51.6744
rfemur -39.3231 -45.8523 -2.38869
rtibia 78.2925
rfoot 14.8122 -18.2618
rtoes 56.0965
lfemur -15.1008 32.693 2.28754
ltibia 48.0829
lfoot -12.9815 3.16633
ltoes -47.6762
711
root 14.0848 17.1847 -4.58009 1.36145 -35.8612 -6.3602
lowerback 18.643 -2.05966 1.66232
upperback -4.14384 -2.31208 0.352787
thorax -15.3348 -1.17795 0.184291
lowerneck 7.52189 9.40748 15.1458
upperneck -23.7572 10.2141 -24.6593
head -5.86052 5.87657 -11.5436
rclavicle 2.93207e-014 -4.37326e-014
rhumerus -7.20848 -36.3137 -6.08437
rradius 110.069
rwrist 1.67837
rhand -18.8228 8.75858
rfingers 7.12502
rthumb 7.47617 -21.0893
lclavicle 2.93207e-014 -4.37326e-014
lhumerus -15.7407 32.4677 -10.1398
lradius 100.18
lwrist 34.3867
lhand -34.0787 21.37
lfingers 7.12502
lthumb -7.25551 51.2256
rfemur -38.3977 -45.0767 -2.58302
rtibia 76.8076
rfoot 12.8552 -20.0878
rtoes 57.7835
lfemur -14.5964 32.4616 1.8622
ltibia 46.605
lfoot -10.8861 2.6054
ltoes -49.4762
712
root 14.0157 17.3058 -4.62883 1.17363 -35.8014 -5.79325
lowerback 18.265 -2.02989 1.75471
upperback -4.23782 -2.2927 0.111031
thorax -15.2319 -1.19523 -0.159719
lowerneck 7.33358 9.41878 15.1769
upperneck -23.3972 10.2716 -24.6121
head -5.70545 5.89055 -11.4791
rclavicle 1.88845e-015 4.77083e-015
rhumerus -5.86493 -36.9729 -5.95379
rradius 108.07
rwrist 1.04758
rhand -18.4934 8.82606
rfingers 7.12502
rthumb 7.79411 -21.0103
lclavicle 1.88845e-015 4.77083e-015
lhumerus -14.7818 33.077 -10.9175
lradius 97.3679
lwrist 35.6811
lhand -34.2854 21.1347
lfingers 7.12502
lthumb -7.45504 50.9833
rfemur -37.3794 -44.3514 -2.68882
rtibia 75.2812
rfoot 12.1328 -20.8037
rtoes 57.9438
lfemur -14.1721 32.1679 1.69722
ltibia 45.3046
lfoot -8.66379 0.785229
ltoes -46.4942
